<svg width="24" height="24" viewBox="0 0 24 24" fill="none" xmlns="http://www.w3.org/2000/svg">
<path d="M12 5C8.13428 5 5 8.13428 5 12C5 15.8657 8.13428 19 12 19C15.8666 19 19 15.8657 19 12C19 8.13428 15.8666 5 12 5ZM13.9089 14.7028C13.5646 15.089 13.0673 15.3163 12.417 15.3847V16.375H11.5881V15.3898C10.5038 15.2787 9.83298 14.6481 9.57409 13.4996L10.8558 13.1655C10.9746 13.8876 11.3677 14.2482 12.035 14.2482C12.3469 14.2482 12.5776 14.1713 12.7246 14.0166C12.8716 13.8619 12.9451 13.6757 12.9451 13.4569C12.9451 13.2305 12.8716 13.0587 12.7246 12.9425C12.5776 12.8255 12.2504 12.6776 11.7437 12.4981C11.2882 12.3401 10.9319 12.1845 10.6755 12.0291C10.4192 11.8753 10.2107 11.6591 10.0509 11.3813C9.89109 11.1028 9.81078 10.7781 9.81078 10.4089C9.81078 9.92442 9.95433 9.48777 10.2397 9.09984C10.5252 8.71276 10.9746 8.47605 11.5881 8.38975V7.625H12.417V8.38978C13.3433 8.50087 13.9432 9.02467 14.2157 9.96204L13.0741 10.4303C12.8511 9.78773 12.5076 9.46644 12.041 9.46644C11.8069 9.46644 11.6189 9.53821 11.4779 9.68177C11.3361 9.82532 11.2652 9.99964 11.2652 10.2039C11.2652 10.4124 11.3335 10.5722 11.4702 10.6841C11.6061 10.7952 11.8992 10.9328 12.347 11.0977C12.8392 11.2771 13.2254 11.4472 13.5048 11.607C13.7851 11.7668 14.0081 11.9881 14.1756 12.2692C14.3422 12.5512 14.4259 12.8802 14.4259 13.257C14.4259 13.8354 14.2533 14.3174 13.9089 14.7028Z" fill="#454D52"/>
<path d="M12 2C8.61872 2 5.62908 3.67723 3.81762 6.24961L2.18238 5.09808C4.35239 2.01656 7.94065 0 12 0C18.6274 0 24 5.37258 24 12C24 14.1904 23.4669 15.8478 23.1792 16.5827C23.1072 16.7664 22.8672 16.7786 22.7657 16.6095L20.2272 12.3786C20.1272 12.212 20.2472 12 20.4415 12H22C22 6.47715 17.5228 2 12 2Z" fill="#90A4AB"/>
<path d="M2 12C2 17.5228 6.47715 22 12 22C15.3813 22 18.3709 20.3228 20.1824 17.7504L21.8176 18.9019C19.6476 21.9834 16.0594 24 12 24C5.37258 24 0 18.6274 0 12C0 9.80955 0.533118 8.15222 0.820843 7.41726C0.892758 7.23357 1.13282 7.22136 1.23431 7.39052L3.77283 11.6214C3.8728 11.788 3.75278 12 3.55845 12H2Z" fill="#90A4AB"/>
</svg>
