<svg width="24" height="27" viewBox="0 0 24 27" fill="none" xmlns="http://www.w3.org/2000/svg">
<g clip-path="url(#clip0)">
<path d="M11.3354 12.384L9.91482 16.1311C9.86667 16.2582 9.75729 16.3455 9.63129 16.3575L2.36514 17.051C2.18686 17.068 2.05157 17.2327 2.05623 17.427L2.204 23.6219C2.20808 23.7922 2.31933 23.9372 2.47286 23.9723L11.027 25.9266C11.2361 25.9744 11.4487 25.9981 11.6612 25.9975L11.6614 24.1603V12.454C11.6613 11.9427 11.5146 11.9111 11.3354 12.384ZM10.3407 23.9368L7.12945 23.3751V21.5469H10.3407V23.9368ZM8.93655 15.467L0.373254 16.4068C0.111646 16.4355 -0.078981 16.1436 0.03247 15.885L2.31267 10.5912C2.35906 10.4834 2.45055 10.4067 2.55823 10.3852L11.9674 8.50816L9.21204 15.2503C9.16271 15.371 9.05757 15.4537 8.93655 15.467ZM21.6349 17.051L14.3687 16.3576C14.2427 16.3455 14.1333 16.2582 14.0852 16.1312L12.6646 12.384C12.4854 11.9111 12.3387 11.9427 12.3387 12.454V24.1602L12.3388 25.9975C12.5513 25.9981 12.7639 25.9744 12.9731 25.9266L21.5272 23.9723C21.6807 23.9372 21.792 23.7922 21.796 23.6218L21.9438 17.427C21.9485 17.2327 21.8131 17.068 21.6349 17.051ZM18.6446 20.36L18.2433 20.372L18.2352 23.1153C18.2348 23.2361 18.1218 23.3517 17.9813 23.3736L17.3236 23.4764C17.1733 23.4998 17.0504 23.4162 17.0507 23.2893L17.0568 20.4078L16.5978 20.4216C16.3746 20.4283 16.2334 20.2339 16.347 20.0731L17.4386 18.528C17.542 18.3816 17.7958 18.3951 17.8955 18.5493L18.8538 20.0327C18.9446 20.1734 18.8297 20.3543 18.6446 20.36ZM23.6267 16.4068L15.0634 15.467C14.9424 15.4537 14.8372 15.371 14.7879 15.2503L12.0326 8.50812L21.4418 10.3852C21.5495 10.4067 21.6409 10.4834 21.6874 10.5911L23.9676 15.8849C24.079 16.1436 23.8883 16.4355 23.6267 16.4068Z" fill="#454D52"/>
<path d="M7.31573 3.26737H5.37204V5.4307H4.16669V0H7.51147V1.0108H5.37204V2.26031H7.31573V3.26737Z" fill="#454D52"/>
<path d="M9.87067 3.51355H9.2182V5.4307H8.01284V0H9.98056C10.5735 0 11.0371 0.142979 11.3714 0.428936C11.7056 0.714894 11.8727 1.11896 11.8727 1.64115C11.8727 2.01911 11.8018 2.33242 11.6598 2.58108C11.5202 2.82974 11.3004 3.03115 11.0005 3.18532L12.0444 5.37476V5.4307H10.7532L9.87067 3.51355ZM9.2182 2.50275H9.98056C10.2095 2.50275 10.3812 2.4381 10.4957 2.3088C10.6124 2.17701 10.6708 1.99424 10.6708 1.7605C10.6708 1.52676 10.6124 1.344 10.4957 1.21221C10.3789 1.07794 10.2072 1.0108 9.98056 1.0108H9.2182V2.50275Z" fill="#454D52"/>
<path d="M15.7017 3.12937H13.8061V4.42364H16.0451V5.4307H12.6008V0H16.052V1.0108H13.8061V2.15587H15.7017V3.12937Z" fill="#454D52"/>
<path d="M19.6372 3.12937H17.7415V4.42364H19.9806V5.4307H16.5362V0H19.9874V1.0108H17.7415V2.15587H19.6372V3.12937Z" fill="#454D52"/>
</g>
<defs>
<clipPath id="clip0">
<rect width="24" height="26.0674" fill="white"/>
</clipPath>
</defs>
</svg>
