<svg width="24" height="24" viewBox="0 0 24 24" fill="none" xmlns="http://www.w3.org/2000/svg">
<path d="M15.729 14.8088L13.036 16.0466L13.0778 15.4599L14.8223 14.6723C14.5735 14.6545 14.3157 14.6477 14.0583 14.6477C13.0944 14.6477 11.4659 15.1357 9.66474 15.8506L3.888 14.3269C3.34815 14.1844 2.77341 14.2722 2.30059 14.5692L2.01655 14.7477C1.73925 14.9218 1.73631 15.325 2.01102 15.5033L5.48353 17.7561C4.654 18.1804 3.86698 18.6112 3.17317 19.0227L1.39129 18.0793C1.10023 17.9253 0.756115 17.907 0.450429 18.0294L0.281762 18.097C0.0302329 18.1977 -0.0751397 18.4968 0.0578015 18.7329L1.03941 20.4769C0.669056 20.7956 0.458429 21.0597 0.458429 21.2425C0.458429 21.7898 1.13192 21.9266 1.72557 21.9266C2.78439 21.9266 16.7674 18.725 16.7674 15.8244C16.7673 15.25 16.3745 14.9627 15.729 14.8088ZM9.83337 20.4719L12.9103 19.388C13.0459 19.3402 13.1907 19.4306 13.2074 19.5733L13.4772 21.8798C13.5446 22.4561 13.2346 23.0108 12.7084 23.2554L12.4198 23.3895C12.2396 23.4733 12.0258 23.4284 11.8944 23.2792L9.7396 20.8314C9.6347 20.7122 9.68357 20.5247 9.83337 20.4719Z" fill="#454D52"/>
<path d="M24 11.595C24 17.1068 19.9345 21.6869 14.6447 22.4945C14.6893 22.2499 14.7018 21.9965 14.6718 21.7398C14.6718 21.7398 14.6402 21.4697 14.5989 21.1162C16.4769 20.7962 18.1726 19.9345 19.5165 18.6951C19.4358 18.628 19.3555 18.541 19.2763 18.4255C18.9193 17.9046 19.3861 17.3879 19.3861 16.9324C19.3861 16.4857 18.4854 16.5224 18.4524 16.2265C18.3386 15.2018 19.0813 15.1879 19.4772 14.7919C19.8731 14.396 19.0858 13.4959 18.5773 13.554C18.0654 13.6086 16.6243 13.3175 16.756 12.215C16.9164 10.8721 15.0451 10.9906 14.7772 10.3638C14.3865 9.45022 15.0359 8.32959 15.8829 8.075C17.0826 7.71441 18.2644 6.73571 18.1721 5.64622C18.0675 4.41229 17.509 3.29947 16.5891 2.63841C15.6319 2.25061 14.5997 2.0108 13.5198 1.95029C12.556 1.98841 11.7086 2.20261 11.7473 2.64386C11.842 3.7252 14.917 4.00606 14.401 5.01688C14.132 5.54382 12.113 6.28755 12.49 7.07178C12.7353 7.58178 13.3389 7.14469 13.1135 8.12378C13.0098 8.57429 12.6148 9.42076 12.0073 9.47539C11.3861 9.53339 10.8688 7.88767 9.17792 7.83371C8.37855 7.80814 7.25239 9.08092 8.20863 9.9839C8.78769 10.5307 9.87431 9.32669 10.195 10.2672C10.421 10.93 10.1646 12.3223 11.2194 12.9042C11.6039 13.1163 12.1933 13.3012 12.7763 13.5975C11.911 13.7742 10.8478 14.1039 9.59232 14.5875L8.53451 14.3084C8.97733 13.9398 9.69683 13.6803 9.51581 12.8748C9.24988 11.6914 7.1951 12.1377 5.77851 10.7212C5.34392 10.2866 4.41698 8.84378 4.42079 7.11029C3.71467 8.45155 3.31279 9.97688 3.31279 11.595C3.31279 12.0931 3.35079 12.5825 3.42385 13.0605C3.40718 13.0603 3.39071 13.0574 3.37408 13.0574C2.92796 13.0574 2.49043 13.1511 2.08494 13.3283C1.99537 12.7634 1.94757 12.1848 1.94757 11.5951C1.94757 5.51527 6.89396 0.568726 12.9737 0.568726C19.0536 0.568647 24 5.51519 24 11.595Z" fill="#90A4AB"/>
</svg>
