<svg width="24" height="24" viewBox="0 0 24 24" fill="none" xmlns="http://www.w3.org/2000/svg">
<path d="M10.5 5.99963V7.49964C10.5 8.59614 10.608 9.58314 10.8165 10.4996H0V7.49964C0 6.67314 0.6735 5.99963 1.5 5.99963H10.5Z" fill="#90A4AB"/>
<path fill-rule="evenodd" clip-rule="evenodd" d="M19.1205 17.7013C21.3555 16.4173 22.9155 15.0763 23.9385 13.4998H24V20.9998C24 21.8278 23.328 22.4998 22.5 22.4998H1.5C0.6735 22.4998 0 21.8278 0 20.9998V13.4998H12.0645C13.089 15.0748 14.649 16.4173 16.884 17.7043C17.223 17.8978 17.61 17.9998 18 17.9998C18.39 17.9998 18.777 17.8978 19.1205 17.7013ZM3.75 17.9998H6.75C7.164 17.9998 7.5 17.6638 7.5 17.2498C7.5 16.8358 7.164 16.4998 6.75 16.4998H3.75C3.336 16.4998 3 16.8358 3 17.2498C3 17.6638 3.336 17.9998 3.75 17.9998Z" fill="#90A4AB"/>
<path d="M23.5455 3.81112L18.2955 1.56112C18.105 1.48012 17.8935 1.48012 17.703 1.56112L12.453 3.81112C12.1785 3.92812 12 4.19962 12 4.49962V7.49962C12 11.6261 13.5255 14.0381 17.6265 16.4006C17.742 16.4666 17.871 16.4996 18 16.4996C18.129 16.4996 18.258 16.4666 18.3735 16.4006C22.4745 14.0441 24 11.6321 24 7.49962V4.49962C24 4.19962 23.8215 3.92812 23.5455 3.81112ZM20.8365 7.21912L17.8365 10.9691C17.6925 11.1461 17.4765 11.2496 17.25 11.2496C17.2395 11.2496 17.2275 11.2496 17.2185 11.2496C16.98 11.2391 16.7595 11.1161 16.626 10.9166L15.126 8.66662C14.8965 8.32162 14.9895 7.85662 15.3345 7.62712C15.6765 7.39912 16.143 7.48912 16.374 7.83562L17.3055 9.23212L19.6635 6.28312C19.923 5.96062 20.3955 5.90962 20.718 6.16612C21.042 6.42262 21.093 6.89512 20.8365 7.21912Z" fill="#454D52"/>
</svg>
