<svg width="84" height="17" viewBox="0 0 84 17" fill="none" xmlns="http://www.w3.org/2000/svg">
<g clip-path="url(#clip0)">
<path fill-rule="evenodd" clip-rule="evenodd" d="M32.9099 12.7829C29.8278 14.9895 25.3595 16.1629 21.5115 16.1629C16.1189 16.1629 11.2627 14.2291 7.58762 11.0099C7.2994 10.7569 7.55643 10.4118 7.90324 10.6075C11.8679 12.8457 16.7714 14.1938 21.8351 14.1938C25.2513 14.1938 29.0066 13.5058 32.462 12.0839C32.9831 11.8698 33.4202 12.4171 32.9099 12.7829Z" fill="#F79C34"/>
<path fill-rule="evenodd" clip-rule="evenodd" d="M34.1929 11.3619C33.7984 10.8724 31.5871 11.13 30.5935 11.2455C30.2925 11.2808 30.2457 11.0255 30.5169 10.8408C32.2812 9.63848 35.1724 9.98546 35.5083 10.3884C35.8466 10.794 35.419 13.6061 33.7662 14.9477C33.5116 15.154 33.2697 15.044 33.3826 14.7717C33.7549 13.8701 34.5874 11.8524 34.1929 11.3619Z" fill="#F79C34"/>
<path fill-rule="evenodd" clip-rule="evenodd" d="M30.6633 2.34818V1.18026C30.6643 1.00241 30.8022 0.884155 30.9685 0.884614L36.3653 0.884155C36.5378 0.884155 36.6767 1.00562 36.6767 1.17889V2.18042C36.6748 2.34864 36.5288 2.56774 36.2704 2.91564L33.4746 6.78792C34.5122 6.76454 35.6098 6.91535 36.5529 7.42917C36.7655 7.54514 36.8227 7.71703 36.8393 7.88525V9.13155C36.8393 9.30344 36.6455 9.50191 36.4414 9.39878C34.7806 8.55446 32.5764 8.46233 30.7394 9.40886C30.5518 9.50603 30.3557 9.30985 30.3557 9.13797V7.95309C30.3557 7.76378 30.3595 7.43926 30.5565 7.15049L33.795 2.64291L30.9751 2.64245C30.8027 2.64245 30.6643 2.52327 30.6633 2.34818Z" fill="#333E47"/>
<path fill-rule="evenodd" clip-rule="evenodd" d="M10.9773 9.64405H9.33539C9.179 9.63442 9.05426 9.52075 9.0415 9.37499L9.04292 1.20002C9.04292 1.03684 9.18467 0.906203 9.35996 0.906203L10.8889 0.905744C11.0487 0.913537 11.1772 1.03088 11.1871 1.18031V2.24738H11.2183C11.6166 1.21514 12.3674 0.733398 13.379 0.733398C14.4057 0.733398 15.0497 1.21514 15.5094 2.24738C15.9078 1.21514 16.8121 0.733398 17.7774 0.733398C18.4673 0.733398 19.218 1.00888 19.6778 1.62813C20.1989 2.3166 20.0922 3.314 20.0922 4.19132L20.0903 9.35024C20.0903 9.51296 19.949 9.64405 19.7737 9.64405H18.1341C17.9688 9.63397 17.8393 9.50746 17.8393 9.35069L17.8388 5.01684C17.8388 4.67306 17.8695 3.81316 17.7925 3.48635C17.6702 2.93539 17.3026 2.78046 16.8277 2.78046C16.4289 2.78046 16.015 3.03853 15.8463 3.45106C15.6777 3.8645 15.6932 4.55205 15.6932 5.01684V9.35024C15.6932 9.51296 15.5515 9.64405 15.3767 9.64405H13.7367C13.5718 9.63397 13.4418 9.50746 13.4418 9.35069L13.4399 5.01684C13.4399 4.10514 13.5935 2.76396 12.4288 2.76396C11.2485 2.76396 11.2948 4.07077 11.2948 5.01684L11.2939 9.35024C11.2939 9.51296 11.1521 9.64405 10.9773 9.64405Z" fill="#333E47"/>
<path fill-rule="evenodd" clip-rule="evenodd" d="M41.3375 2.40231C40.127 2.40231 40.0504 4.00155 40.0504 4.99942C40.0504 5.99728 40.0353 8.13052 41.3228 8.13052C42.5948 8.13052 42.6562 6.41027 42.6562 5.36107C42.6562 4.67306 42.625 3.84708 42.4105 3.19345C42.2267 2.62554 41.8587 2.40231 41.3375 2.40231ZM41.3228 0.733398C43.7595 0.733398 45.0773 2.76396 45.0773 5.34411C45.0773 7.83763 43.6215 9.8164 41.3228 9.8164C38.9316 9.8164 37.6289 7.78629 37.6289 5.25794C37.6289 2.71171 38.9467 0.733398 41.3228 0.733398Z" fill="#333E47"/>
<path fill-rule="evenodd" clip-rule="evenodd" d="M48.2376 9.64405H46.6014C46.4374 9.63397 46.307 9.50746 46.307 9.35069L46.3042 1.17297C46.3184 1.02309 46.4545 0.906203 46.6198 0.906203L48.1427 0.905744C48.2863 0.913078 48.4044 1.0075 48.4347 1.13447V2.38489H48.4654C48.9256 1.26648 49.5686 0.733398 50.7026 0.733398C51.4383 0.733398 52.1589 0.991459 52.6186 1.69689C53.0476 2.35052 53.0476 3.45106 53.0476 4.24265V9.38691C53.0297 9.53175 52.8955 9.64405 52.7329 9.64405H51.0872C50.9351 9.63488 50.8127 9.52625 50.7948 9.38691V4.94854C50.7948 4.05381 50.9025 2.74609 49.768 2.74609C49.3697 2.74609 49.0017 3.00415 48.8179 3.39972C48.5878 3.89888 48.557 4.39758 48.557 4.94854V9.35024C48.5542 9.51296 48.4125 9.64405 48.2376 9.64405Z" fill="#333E47"/>
<path fill-rule="evenodd" clip-rule="evenodd" d="M28.0159 9.62426C27.9077 9.71868 27.7513 9.7251 27.6285 9.66139C27.0832 9.22181 26.9854 9.01876 26.6873 8.59981C25.7862 9.49042 25.1479 9.75764 23.9804 9.75764C22.5983 9.75764 21.5229 8.92983 21.5229 7.27513C21.5229 5.98208 22.2454 5.10293 23.274 4.67206C24.1647 4.29254 25.4087 4.22378 26.3613 4.12019V3.91347C26.3613 3.53348 26.392 3.08611 26.1614 2.75838C25.9615 2.46503 25.5779 2.34448 25.24 2.34448C24.6135 2.34448 24.0574 2.65571 23.9204 3.30063C23.8916 3.4441 23.7838 3.58665 23.6355 3.59399L22.0436 3.42668C21.9094 3.39689 21.7601 3.29238 21.7984 3.09345C22.1599 1.24669 23.8599 0.67098 25.4049 0.655396H25.5269C26.3178 0.665021 27.328 0.875412 27.9432 1.44791C28.7422 2.17213 28.6647 3.13745 28.6647 4.1894V6.67054C28.6647 7.41722 28.9846 7.7445 29.2846 8.14648C29.3899 8.29179 29.4131 8.46367 29.2794 8.57002C28.9439 8.84274 28.3481 9.34466 28.0207 9.62792L28.0159 9.62426ZM26.3613 5.74098C26.3613 6.3616 26.3764 6.87864 26.0542 7.43052C25.7929 7.87834 25.378 8.15428 24.9173 8.15428C24.288 8.15428 23.9194 7.68903 23.9194 6.99919C23.9194 5.64243 25.1734 5.39582 26.3613 5.39582V5.74098Z" fill="#333E47"/>
<path fill-rule="evenodd" clip-rule="evenodd" d="M6.49346 9.62426C6.38479 9.71868 6.22792 9.7251 6.10554 9.66139C5.55981 9.22181 5.46201 9.01876 5.16434 8.59981C4.26282 9.49042 3.62496 9.75764 2.45743 9.75764C1.07539 9.75764 0 8.92983 0 7.27513C0 5.98208 0.721496 5.10293 1.75106 4.67206C2.6417 4.29254 3.88578 4.22378 4.83785 4.12019V3.91347C4.83785 3.53348 4.86903 3.08611 4.63846 2.75838C4.43859 2.46503 4.05445 2.34448 3.7171 2.34448C3.09057 2.34448 2.5335 2.65571 2.39742 3.30063C2.36908 3.4441 2.26087 3.58665 2.11204 3.59399L0.520686 3.42668C0.386026 3.39689 0.236719 3.29238 0.275463 3.09345C0.635974 1.24669 2.33647 0.67098 3.882 0.655396H4.0039C4.79485 0.665021 5.80504 0.875412 6.42022 1.44791C7.21873 2.17213 7.14172 3.13745 7.14172 4.1894V6.67054C7.14172 7.41722 7.4616 7.7445 7.76163 8.14648C7.86605 8.29179 7.89015 8.46367 7.75643 8.57002C7.42096 8.84274 6.82468 9.34466 6.49724 9.62792L6.49346 9.62426ZM4.83785 5.74098C4.83785 6.3616 4.85344 6.87864 4.53073 7.43052C4.26991 7.87834 3.85506 8.15428 3.39391 8.15428C2.76455 8.15428 2.39601 7.68903 2.39601 6.99919C2.39601 5.64243 3.65047 5.39582 4.83785 5.39582V5.74098Z" fill="#333E47"/>
<path fill-rule="evenodd" clip-rule="evenodd" d="M75.4915 12.5766C75.4915 12.3695 75.4915 12.1834 75.4915 11.9762C75.4915 11.8052 75.578 11.6874 75.7618 11.698C76.1048 11.7452 76.59 11.7924 76.9345 11.7236C77.3843 11.6329 77.707 11.3235 77.8979 10.8995C78.1667 10.3027 78.3449 9.8214 78.4573 9.50559L75.0417 1.29715C74.984 1.15781 74.967 0.899292 75.2538 0.899292H76.4478C76.6756 0.899292 76.7682 1.03955 76.8192 1.17706L79.2955 7.84447L81.6594 1.17706C81.7076 1.04047 81.8045 0.899292 82.0303 0.899292H83.1563C83.4412 0.899292 83.4251 1.15735 83.3684 1.29715L79.9802 9.76181C79.5417 10.8885 78.9577 12.683 77.6423 12.9947C76.9827 13.162 76.1506 13.1015 75.6621 12.903C75.5387 12.843 75.4915 12.6825 75.4915 12.5766Z" fill="#333E47"/>
<path fill-rule="evenodd" clip-rule="evenodd" d="M73.8988 9.14394C73.8988 9.29657 73.7698 9.42171 73.6115 9.42171H72.7695C72.5876 9.42171 72.4634 9.29428 72.4402 9.14394L72.3556 8.58794C71.9687 8.90559 71.4938 9.18473 70.9788 9.37908C69.9885 9.75219 68.8469 9.81407 67.8792 9.23745C67.1795 8.82079 66.8081 8.00627 66.8081 7.16609C66.8081 6.51612 67.0146 5.87166 67.4724 5.40367C68.0834 4.76424 68.9688 4.45026 70.0381 4.45026C70.684 4.45026 71.6082 4.52406 72.2805 4.7372V3.61833C72.2805 2.48066 71.7868 1.98838 70.485 1.98838C69.49 1.98838 68.7288 2.13414 67.6695 2.45362C67.4998 2.45912 67.4006 2.33398 67.4006 2.18135V1.5433C67.4006 1.39021 67.5353 1.24215 67.6813 1.19723C68.4377 0.877294 69.5093 0.677905 70.6485 0.641235C72.1336 0.641235 73.8988 0.966217 73.8988 3.18196V9.14394ZM72.2805 7.51032V5.82216C71.7154 5.67227 70.7803 5.60993 70.4184 5.60993C69.8467 5.60993 69.2207 5.74102 68.8937 6.08251C68.6494 6.33278 68.5388 6.69213 68.5388 7.03958C68.5388 7.48878 68.699 7.93935 69.0732 8.16212C69.5079 8.4486 70.1822 8.41376 70.8158 8.23912C71.4248 8.07136 71.9965 7.7748 72.2805 7.51032Z" fill="#333E47"/>
<path fill-rule="evenodd" clip-rule="evenodd" d="M61.484 2.01373C63.3523 2.01373 63.8612 3.43879 63.8612 5.07058C63.8716 6.17066 63.6632 7.15157 63.0759 7.71306C62.6365 8.13339 62.1455 8.24798 61.4066 8.24798C60.7488 8.24798 59.8837 7.9152 59.2373 7.4518V2.78608C59.9102 2.28463 60.7687 2.01373 61.484 2.01373ZM58.951 12.8697H57.8232C57.6654 12.8697 57.5364 12.7446 57.5364 12.5919C57.5364 8.79206 57.5364 4.99174 57.5364 1.19188C57.5364 1.03924 57.6654 0.91411 57.8232 0.91411H58.6864C58.8679 0.91411 58.9921 1.04154 59.0153 1.19188L59.106 1.78913C59.9144 1.09287 60.9553 0.646423 61.9471 0.646423C64.7249 0.646423 65.6382 2.86675 65.6382 5.17555C65.6382 7.64568 64.241 9.63041 61.8781 9.63041C60.883 9.63041 59.9527 9.27426 59.2373 8.65547V12.5919C59.2373 12.7446 59.1084 12.8697 58.951 12.8697Z" fill="#333E47"/>
</g>
<defs>
<clipPath id="clip0">
<rect width="83.4019" height="15.5217" fill="white" transform="translate(0 0.641235)"/>
</clipPath>
</defs>
</svg>
