<svg width="16" height="16" viewBox="0 0 16 16" fill="none" xmlns="http://www.w3.org/2000/svg">
<path fill-rule="evenodd" clip-rule="evenodd" d="M1.57883 2C1.92298 2 2.22298 2.23421 2.30644 2.56811L4.25819 10.3751C4.35001 10.7423 4.67999 11 5.05856 11H12.4459C12.801 11 13.1163 10.7728 13.2286 10.4359L15.4286 3.83588C15.6067 3.30167 15.209 2.75 14.6459 2.75H3.89808L3.61964 1.63619C3.45269 0.968452 2.85272 0.5 2.16442 0.5H1.25C0.835781 0.5 0.5 0.835793 0.5 1.25C0.5 1.66421 0.835781 2 1.25 2H1.57883ZM5.58558 9.5L4.27308 4.25H13.7094L11.9594 9.5H5.58558Z" fill="white"/>
<path d="M6.5 14C6.5 14.8284 5.82843 15.5 5 15.5C4.17157 15.5 3.5 14.8284 3.5 14C3.5 13.1716 4.17157 12.5 5 12.5C5.82843 12.5 6.5 13.1716 6.5 14Z" fill="white"/>
<path d="M14 14C14 14.8284 13.3284 15.5 12.5 15.5C11.6716 15.5 11 14.8284 11 14C11 13.1716 11.6716 12.5 12.5 12.5C13.3284 12.5 14 13.1716 14 14Z" fill="white"/>
</svg>
