<svg width="54" height="20" viewBox="0 0 54 20" fill="none" xmlns="http://www.w3.org/2000/svg">
<rect width="54" height="20" rx="2" fill="#4866B1"/>
<path d="M10.4104 6.32401C10.4104 6.62641 10.4104 7.97616 10.4104 7.97616H9.19995V9.99643H10.4104V15.9999H12.8968V9.9966H14.5654C14.5654 9.9966 14.7217 9.02789 14.7974 7.96871C14.5802 7.96871 12.9062 7.96871 12.9062 7.96871C12.9062 7.96871 12.9062 6.79339 12.9062 6.58738C12.9062 6.38092 13.1774 6.10321 13.4453 6.10321C13.7127 6.10321 14.2772 6.10321 14.8 6.10321C14.8 5.82815 14.8 4.87775 14.8 4C14.1021 4 13.3081 4 12.9581 4C10.3489 3.99986 10.4104 6.02213 10.4104 6.32401Z" fill="white"/>
<path d="M28.876 12.392H24.7V5.456H22.828V14H28.876V12.392ZM31.5133 5.456H29.8093V6.896H31.5133V5.456ZM31.5133 7.808H29.8093V14H31.5133V7.808ZM38.867 7.808H36.863L34.679 10.028V5.456H33.011V14H34.679V11.9L35.375 11.252L37.079 14H39.143L36.539 10.1L38.867 7.808ZM45.5657 12.08H43.9337C43.6817 12.704 43.2977 12.98 42.6737 12.98C41.7617 12.98 41.2457 12.404 41.2217 11.336H45.6617V11.168C45.6617 8.996 44.4737 7.628 42.6017 7.628C40.8017 7.628 39.4937 9.02 39.4937 10.94C39.4937 12.884 40.7537 14.18 42.6617 14.18C44.0657 14.18 45.1817 13.424 45.5657 12.08ZM43.9337 10.256H41.2217C41.3177 9.392 41.8457 8.864 42.6017 8.864C43.4537 8.864 43.8617 9.5 43.9337 10.256Z" fill="white"/>
</svg>
