<svg width="41" height="17" viewBox="0 0 41 17" fill="none" xmlns="http://www.w3.org/2000/svg">
<g clip-path="url(#clip0)">
<path d="M19.0563 8.21255V12.7625H17.5684V1.52621H21.5145C21.9856 1.51666 22.4539 1.59771 22.8925 1.76466C23.331 1.93162 23.7312 2.18118 24.0698 2.49894C24.4119 2.79742 24.6841 3.16347 24.8682 3.57248C25.0523 3.9815 25.1441 4.42401 25.1372 4.87027C25.147 5.31893 25.0567 5.76433 24.8725 6.17595C24.6882 6.58757 24.4144 6.95568 24.0698 7.25505C23.3798 7.89338 22.528 8.21225 21.5145 8.21165H19.0563V8.21255ZM19.0563 2.90956V6.83189H21.5515C21.825 6.83975 22.0973 6.79215 22.3508 6.69211C22.6043 6.59207 22.8335 6.44181 23.0237 6.25094C23.2129 6.07247 23.3633 5.85901 23.466 5.62317C23.5687 5.38734 23.6216 5.13391 23.6216 4.87789C23.6216 4.62188 23.5687 4.36845 23.466 4.13262C23.3633 3.89678 23.2129 3.68332 23.0237 3.50485C22.8359 3.30996 22.6075 3.15601 22.3537 3.05323C22.0998 2.95044 21.8264 2.90116 21.5515 2.90866H19.0563V2.90956Z" fill="#5F6368"/>
<path d="M28.5659 4.82367C29.6656 4.82367 30.5337 5.10877 31.1702 5.67896C31.8066 6.24916 32.1245 7.03093 32.1239 8.02429V12.7625H30.7007V11.6956H30.636C30.0199 12.5742 29.2005 13.0135 28.1777 13.0135C27.3047 13.0135 26.5743 12.7625 25.9865 12.2604C25.7045 12.03 25.479 11.7414 25.3264 11.4157C25.1739 11.09 25.0982 10.7354 25.1049 10.3777C25.1049 9.58217 25.4148 8.94951 26.0346 8.47973C26.6544 8.00995 27.4818 7.77446 28.5169 7.77326C29.4004 7.77326 30.128 7.93016 30.6998 8.24394V7.91402C30.7015 7.67018 30.6472 7.42903 30.5409 7.20806C30.4346 6.98709 30.2789 6.79183 30.0852 6.63646C29.6917 6.29208 29.179 6.10418 28.6491 6.11019C27.8179 6.11019 27.1602 6.45028 26.676 7.13045L25.3655 6.32984C26.0864 5.32573 27.1531 4.82367 28.5659 4.82367ZM26.6409 10.4091C26.6399 10.5928 26.6841 10.774 26.77 10.9378C26.8558 11.1015 26.9807 11.243 27.1344 11.3504C27.4634 11.6015 27.8719 11.7346 28.2905 11.727C28.9183 11.726 29.5202 11.4835 29.9641 11.0528C30.457 10.6027 30.7035 10.0747 30.7035 9.46861C30.2395 9.10999 29.5926 8.93069 28.7627 8.93069C28.1583 8.93069 27.6543 9.07204 27.2508 9.35475C26.8432 9.64164 26.6409 9.99039 26.6409 10.4091Z" fill="#5F6368"/>
<path d="M40.2936 5.07471L35.3254 16.1514H33.7894L35.6331 12.2757L32.3662 5.07471H33.9835L36.3447 10.5973H36.3771L38.6736 5.07471H40.2936Z" fill="#5F6368"/>
<path d="M13.0435 7.23177C13.044 6.79189 13.0057 6.35277 12.9289 5.91925H6.65381V8.40534H10.2479C10.1743 8.8024 10.0187 9.18091 9.79026 9.51804C9.56187 9.85517 9.26546 10.1439 8.91892 10.367V11.9807H11.0639C12.3198 10.8574 13.0435 9.19608 13.0435 7.23177Z" fill="#4285F4"/>
<path d="M6.65411 13.5397C8.44976 13.5397 9.96168 12.9678 11.0642 11.9816L8.91923 10.3678C8.32222 10.7605 7.55332 10.9846 6.65411 10.9846C4.91854 10.9846 3.44543 9.84961 2.91865 8.32013H0.708984V9.9832C1.2628 11.0523 2.11202 11.951 3.16184 12.5791C4.21165 13.2071 5.42074 13.5397 6.65411 13.5397Z" fill="#34A853"/>
<path d="M2.91869 8.32019C2.6402 7.51873 2.6402 6.65081 2.91869 5.84935V4.18628H0.709017C0.243125 5.08564 0.000488281 6.07823 0.000488281 7.08477C0.000488281 8.09131 0.243125 9.0839 0.709017 9.98326L2.91869 8.32019Z" fill="#FBBC04"/>
<path d="M6.65411 3.18476C7.60303 3.16972 8.51994 3.51753 9.20665 4.15301L11.1058 2.31064C9.90154 1.21335 8.30616 0.610916 6.65411 0.629635C5.42074 0.629689 4.21165 0.962298 3.16184 1.59033C2.11202 2.21836 1.2628 3.11709 0.708984 4.18618L2.91865 5.84925C3.44543 4.31977 4.91854 3.18476 6.65411 3.18476Z" fill="#EA4335"/>
</g>
<defs>
<clipPath id="clip0">
<rect width="40.2906" height="15.5217" fill="white" transform="translate(0 0.6297)"/>
</clipPath>
</defs>
</svg>
