<svg width="174" height="40" viewBox="0 0 174 40" fill="none" xmlns="http://www.w3.org/2000/svg">
<path d="M37.2183 11.2273C37.2183 13.113 34.2725 14.7687 31.6332 14.7687C29.48 14.7687 28.4504 13.4918 28.4504 12.5104C28.4504 10.5857 31.866 8.87689 34.1786 8.9854C36.2132 9.08086 37.2183 10.0649 37.2183 11.2273Z" fill="#1F1F24"/>
<path fill-rule="evenodd" clip-rule="evenodd" d="M26.5251 24.3793C38.576 24.3793 54.763 15.7182 54.763 9.30262C54.763 4.34209 51.4114 0 39.3605 0C27.3095 0 11.1226 7.05716 11.1226 15.3974C11.1226 19.5676 15.615 24.3793 26.5251 24.3793ZM28.1295 20.5299C39.0396 20.5299 51.2163 13.4643 51.2163 8.23054C51.2163 4.49092 47.7711 2.25771 39.3605 1.95058C30.0548 1.61077 14.9732 9.30262 14.9732 14.4858C14.9732 17.6429 19.2292 20.5299 28.1295 20.5299Z" fill="#1F1F24"/>
<path d="M2.5103 10.8374L23.5541 32.515L65.6417 9.50261L68.0451 11.2112L22.6461 38.4936L0 12.0121L2.5103 10.8374Z" fill="#1F1F24"/>
<path d="M54.1674 23.7788V36.5689H56.3956V31.2876H59.3786C61.5529 31.2876 62.056 32.0062 62.1818 34.0181C62.2537 35.2037 62.2717 36.0839 62.5951 36.5689H65.0031C64.4819 35.9941 64.446 34.9163 64.3202 33.3894C64.2124 32.078 64.0507 30.8385 62.4154 30.4792C63.7632 30.0122 64.5358 28.8805 64.5358 27.3356C64.5358 24.6949 62.5233 23.7788 60.2231 23.7788H54.1674ZM56.3956 25.6111H59.6481C60.9958 25.6111 62.3076 25.8805 62.3076 27.5691C62.3076 29.4014 60.8341 29.617 59.3606 29.617H56.3956V25.6111Z" fill="#1F1F24"/>
<path d="M74.3311 33.6768H72.3724C71.9591 34.8624 71.2942 35.3654 70.1621 35.3654C68.5808 35.3654 67.6644 34.3055 67.6105 32.4373H74.4569V32.2217C74.4569 29.0242 72.7677 27.0302 70.0543 27.0302C67.4487 27.0302 65.5619 29.132 65.5619 32.0421C65.5619 34.8085 67.269 36.8743 70.1262 36.8743C72.2107 36.8743 73.8639 35.7067 74.3311 33.6768ZM72.4083 31.072H67.6464C67.8441 29.4374 68.6886 28.5571 70.0364 28.5571C71.3841 28.5571 72.2826 29.5092 72.4083 31.072Z" fill="#1F1F24"/>
<path d="M82.8247 29.9942C82.8247 27.8925 81.0636 27.0302 78.9432 27.0302C76.5712 27.0302 75.1517 28.0721 75.1517 29.8326C75.1517 31.8265 76.8228 32.096 78.9432 32.6169C80.1113 32.9043 81.1535 33.066 81.1535 34.0001C81.1535 34.8265 80.3628 35.3474 79.1589 35.3474C77.883 35.3474 77.0205 34.8265 76.9127 33.6049H74.954C75.0618 35.7246 76.4994 36.8384 79.1229 36.8384C81.6027 36.8384 83.1661 35.6528 83.1661 33.7846C83.1661 31.7367 81.1894 31.3235 79.5722 30.9463C78.0807 30.605 77.2002 30.5331 77.2002 29.599C77.2002 28.9164 77.8111 28.5212 78.8534 28.5212C79.9495 28.5212 80.7222 28.8625 80.866 29.9942H82.8247Z" fill="#1F1F24"/>
<path d="M86.2129 27.2997H84.2902V40H86.3207V35.3474C87.0575 36.3713 88.0817 36.8025 89.3396 36.8025C91.8374 36.8025 93.4546 34.8983 93.4546 31.9702C93.4546 28.9703 91.8014 27.0302 89.2318 27.0302C88.0278 27.0302 86.8598 27.4973 86.2129 28.5392V27.2997ZM88.8185 28.6829C90.3998 28.6829 91.3881 29.9583 91.3881 31.9702C91.3881 33.9462 90.4178 35.1678 88.8544 35.1678C87.2192 35.1678 86.2488 33.9462 86.2488 31.9343C86.2488 29.9044 87.2012 28.6829 88.8185 28.6829Z" fill="#1F1F24"/>
<path d="M103.002 33.6768H101.044C100.63 34.8624 99.9655 35.3654 98.8334 35.3654C97.2521 35.3654 96.3357 34.3055 96.2818 32.4373H103.128V32.2217C103.128 29.0242 101.439 27.0302 98.7256 27.0302C96.12 27.0302 94.2332 29.132 94.2332 32.0421C94.2332 34.8085 95.9403 36.8743 98.7975 36.8743C100.882 36.8743 102.535 35.7067 103.002 33.6768ZM101.08 31.072H96.3177C96.5154 29.4374 97.3599 28.5571 98.7077 28.5571C100.055 28.5571 100.954 29.5092 101.08 31.072Z" fill="#1F1F24"/>
<path d="M112.556 33.066H110.544C110.328 34.4313 109.519 35.1857 108.297 35.1857C106.734 35.1857 105.818 33.9642 105.818 31.9163C105.818 29.8505 106.788 28.5931 108.369 28.5931C109.483 28.5931 110.22 29.2397 110.454 30.4074H112.484C112.251 28.2697 110.723 27.0123 108.351 27.0123C105.53 27.0123 103.733 28.9703 103.733 32.0241C103.733 34.8265 105.476 36.8025 108.297 36.8025C110.615 36.8025 112.269 35.3474 112.556 33.066Z" fill="#1F1F24"/>
<path d="M118.121 27.2997H116.252V24.5153H114.203V27.2997H112.658V28.7907H114.203V33.2097C114.203 35.3115 114.042 36.6588 116.737 36.6588C117.258 36.6588 117.51 36.6588 118.121 36.5869V34.9702C117.815 35.0061 117.6 35.0061 117.312 35.0061C116.234 35.0061 116.252 34.557 116.252 33.6768V28.7907H118.121V27.2997Z" fill="#1F1F24"/>
<path d="M123.805 23.7788V36.5689H126.051V31.6469H129.663C132.251 31.6469 133.814 30.102 133.814 27.6769C133.814 25.0003 131.999 23.7788 129.358 23.7788H123.805ZM126.051 25.647H128.98C130.4 25.647 131.622 26.0781 131.622 27.7308C131.622 29.2397 130.633 29.8326 129.178 29.8326H126.051V25.647Z" fill="#1F1F24"/>
<path d="M136.994 23.7788H134.964V36.5689H136.994V31.593C136.994 30.0302 137.587 28.7727 139.259 28.7727C140.786 28.7727 141.056 29.7068 141.056 30.9463V36.5689H143.122V30.2816C143.122 28.144 141.9 27.0661 139.924 27.0661C138.648 27.0661 137.659 27.5871 136.994 28.5751V23.7788Z" fill="#1F1F24"/>
<path d="M149.02 27.0302C146.145 27.0302 144.294 28.9523 144.294 31.9343C144.294 34.9522 146.127 36.8564 149.02 36.8564C151.859 36.8564 153.656 34.9522 153.656 31.9343C153.656 28.9344 151.859 27.0302 149.02 27.0302ZM148.984 28.6469C150.601 28.6469 151.59 29.8864 151.59 31.9163C151.59 34.0001 150.619 35.2576 149.002 35.2576C147.349 35.2576 146.361 34.0181 146.361 31.9343C146.361 29.9044 147.367 28.6469 148.984 28.6469Z" fill="#1F1F24"/>
<path d="M156.797 27.2997H154.856V36.5689H156.905V31.575C156.905 29.4374 157.929 28.7547 159.169 28.7547C160.804 28.7547 160.966 29.9044 160.966 31.1798V36.5689H163.014V30.3894C163.014 28.2877 162.008 27.0482 159.87 27.0482C158.486 27.0482 157.569 27.5512 156.797 28.6649V27.2997Z" fill="#1F1F24"/>
<path d="M168.912 27.0302C166.037 27.0302 164.186 28.9523 164.186 31.9343C164.186 34.9522 166.019 36.8564 168.912 36.8564C171.751 36.8564 173.548 34.9522 173.548 31.9343C173.548 28.9344 171.751 27.0302 168.912 27.0302ZM168.876 28.6469C170.494 28.6469 171.482 29.8864 171.482 31.9163C171.482 34.0001 170.512 35.2576 168.894 35.2576C167.241 35.2576 166.253 34.0181 166.253 31.9343C166.253 29.9044 167.259 28.6469 168.876 28.6469Z" fill="#1F1F24"/>
</svg>
