<svg width="56" height="56" viewBox="0 0 56 56" fill="none" xmlns="http://www.w3.org/2000/svg">
<path fill-rule="evenodd" clip-rule="evenodd" d="M56 28C56 43.464 43.464 56 28 56C12.536 56 0 43.464 0 28C0 12.536 12.536 0 28 0C43.464 0 56 12.536 56 28ZM7.41155 13.8144L25.326 52.8587C12.7762 51.5242 3 40.9038 3 28C3 22.7321 4.62934 17.8448 7.41155 13.8144ZM27 17.2064V49.3133L10.6187 13.6106L27 17.2064ZM28.5 14.4643L45.9779 10.6277C41.4321 5.92446 35.0576 3 28 3C21.0333 3 14.7322 5.84965 10.1986 10.4469L28.5 14.4643ZM30 17.2064V49.3133L46.3813 13.6106L30 17.2064ZM31.7364 52.7227C43.7712 50.9191 53 40.5373 53 28C53 23.1159 51.5994 18.559 49.1781 14.7089L31.7364 52.7227Z" fill="#454D52"/>
</svg>
