<svg width="24" height="24" viewBox="0 0 24 24" fill="none" xmlns="http://www.w3.org/2000/svg">
<path d="M21.6284 1.01396L7.97161 0.985962C6.66361 0.985962 5.59961 2.04996 5.59961 3.35796V4.60756L16.0256 4.58596C17.7764 4.58596 19.1996 6.00876 19.1996 7.75756V16.2144C19.1996 16.468 19.1664 16.7136 19.11 16.9504L20.5036 18.4836C20.5808 18.5688 20.6892 18.6144 20.7996 18.6144C20.848 18.6144 20.8968 18.606 20.9436 18.5876C21.098 18.5284 21.1996 18.3796 21.1996 18.2144V14.2144H21.6276C22.9356 14.2144 23.9996 13.1504 23.9996 11.8424V3.38596C23.9996 2.07796 22.9356 1.01396 21.6284 1.01396Z" fill="#90A4AB"/>
<path d="M16.0276 5.38599L2.372 5.41399C1.064 5.41399 0 6.47799 0 7.78599V16.2424C0 17.5504 1.064 18.6144 2.3716 18.6144H4.8V22.6144C4.8 22.7796 4.9016 22.928 5.0556 22.9876C5.1028 23.006 5.1516 23.0144 5.2 23.0144C5.3104 23.0144 5.4188 22.9688 5.496 22.8836L9.3776 18.6136L16.028 18.5864C17.336 18.5864 18.4 17.5224 18.4 16.2144V7.75759C18.4 6.44959 17.336 5.38599 16.0276 5.38599ZM4.8 13.7796C3.9176 13.7796 3.2 13.062 3.2 12.1796C3.2 11.2972 3.9176 10.5796 4.8 10.5796C5.6824 10.5796 6.4 11.2972 6.4 12.1796C6.4 13.062 5.6824 13.7796 4.8 13.7796ZM9.2 13.7796C8.3176 13.7796 7.6 13.062 7.6 12.1796C7.6 11.2972 8.3176 10.5796 9.2 10.5796C10.0824 10.5796 10.8 11.2972 10.8 12.1796C10.8 13.062 10.0824 13.7796 9.2 13.7796ZM13.6 13.7796C12.7176 13.7796 12 13.062 12 12.1796C12 11.2972 12.7176 10.5796 13.6 10.5796C14.4824 10.5796 15.2 11.2972 15.2 12.1796C15.2 13.062 14.4824 13.7796 13.6 13.7796Z" fill="#90A4AB"/>
</svg>
