<svg width="24" height="24" viewBox="0 0 24 24" fill="none" xmlns="http://www.w3.org/2000/svg">
<path d="M8.4144 3.0042V2.11234C8.4144 1.91751 8.57286 1.75894 8.76768 1.75894H9.33507C9.93056 1.75894 10.474 1.39729 10.7192 0.837477C10.9422 0.328726 11.445 0 11.9999 0C12.5547 0 13.0576 0.328726 13.2805 0.837363C13.5259 1.39717 14.0691 1.75883 14.6646 1.75883H15.2319C15.4268 1.75883 15.5852 1.91728 15.5852 2.11222V3.00409C15.5852 3.19891 15.4268 3.35748 15.2319 3.35748H8.76757C8.57286 3.35748 8.4144 3.19903 8.4144 3.0042ZM7.17614 19.6656H8.83033V18.0114H7.17614V19.6656ZM7.17614 9.71768H8.83033V8.06349H7.17614V9.71768ZM20.3006 5.34521V21.7021C20.3006 22.9691 19.2699 23.9999 18.0029 23.9999H5.99697C4.72992 23.9999 3.69922 22.9691 3.69922 21.7021V5.34521C3.69922 4.07827 4.72992 3.04746 5.99697 3.04746H7.2692C7.29237 3.85476 7.95488 4.50487 8.76768 4.50487H15.2321C16.0449 4.50487 16.7074 3.85476 16.7305 3.04746H18.0028C19.2699 3.04746 20.3006 4.07827 20.3006 5.34521ZM10.8847 8.88077C10.8847 9.19757 11.1415 9.45446 11.4584 9.45446H16.6369C16.9538 9.45446 17.2106 9.19757 17.2106 8.88077C17.2106 8.56398 16.9538 8.30708 16.6369 8.30708H11.4584C11.1415 8.30708 10.8847 8.56398 10.8847 8.88077ZM10.8847 13.9121C10.8847 14.2289 11.1415 14.4858 11.4584 14.4858H16.0605C16.3774 14.4858 16.6342 14.2289 16.6342 13.9121C16.6342 13.5953 16.3774 13.3384 16.0605 13.3384H11.4584C11.1415 13.3384 10.8847 13.5952 10.8847 13.9121ZM9.97772 17.4377C9.97772 17.121 9.72093 16.8641 9.40402 16.8641H6.60245C6.28554 16.8641 6.02876 17.121 6.02876 17.4377V20.2393C6.02876 20.5561 6.28554 20.813 6.60245 20.813H9.40402C9.72093 20.813 9.97772 20.5561 9.97772 20.2393V17.4377ZM9.97772 12.4637C9.97772 12.1469 9.72093 11.89 9.40402 11.89H6.60245C6.28554 11.89 6.02876 12.1469 6.02876 12.4637V15.2653C6.02876 15.5821 6.28554 15.839 6.60245 15.839H9.40402C9.72093 15.839 9.97772 15.5821 9.97772 15.2653V12.4637ZM9.97772 7.48979C9.97772 7.173 9.72093 6.9161 9.40402 6.9161H6.60245C6.28554 6.9161 6.02876 7.173 6.02876 7.48979V10.2914C6.02876 10.6082 6.28554 10.8651 6.60245 10.8651H9.40402C9.72093 10.8651 9.97772 10.6082 9.97772 10.2914V7.48979ZM17.498 18.9432C17.498 18.6264 17.2412 18.3695 16.9243 18.3695H11.4584C11.1415 18.3695 10.8847 18.6264 10.8847 18.9432C10.8847 19.26 11.1415 19.5169 11.4584 19.5169H16.9245C17.2413 19.5169 17.498 19.26 17.498 18.9432ZM7.17614 14.6916H8.83033V13.0374H7.17614V14.6916Z" fill="#90A4AB"/>
</svg>
