<svg width="24" height="25" viewBox="0 0 24 25" fill="none" xmlns="http://www.w3.org/2000/svg">
<g clip-path="url(#clip0)">
<path d="M11.3354 11.6238L9.91482 15.1409C9.86667 15.2602 9.75729 15.3421 9.63129 15.3534L2.36514 16.0043C2.18686 16.0203 2.05157 16.1749 2.05623 16.3572L2.204 22.1718C2.20808 22.3317 2.31933 22.4678 2.47286 22.5008L11.027 24.3351C11.2361 24.38 11.4487 24.4022 11.6612 24.4017L11.6614 22.6772V11.6895C11.6613 11.2096 11.5146 11.18 11.3354 11.6238ZM10.3407 22.4674L7.12945 21.9402V20.2243H10.3407V22.4674ZM8.93655 14.5176L0.373254 15.3997C0.111646 15.4266 -0.078981 15.1526 0.03247 14.9099L2.31267 9.94102C2.35906 9.83991 2.45055 9.76787 2.55823 9.74772L11.9674 7.98588L9.21204 14.3142C9.16271 14.4274 9.05757 14.5051 8.93655 14.5176ZM21.6349 16.0043L14.3687 15.3534C14.2427 15.3422 14.1333 15.2602 14.0852 15.1409L12.6646 11.6238C12.4854 11.18 12.3387 11.2096 12.3387 11.6895V22.6771L12.3388 24.4016C12.5513 24.4022 12.7639 24.3799 12.9731 24.3351L21.5272 22.5007C21.6807 22.4678 21.792 22.3317 21.796 22.1718L21.9438 16.3572C21.9485 16.1748 21.8131 16.0203 21.6349 16.0043ZM18.6446 19.1102L18.2433 19.1215L18.2352 21.6964C18.2348 21.8098 18.1218 21.9182 17.9813 21.9388L17.3236 22.0353C17.1733 22.0573 17.0504 21.9788 17.0507 21.8597L17.0568 19.1551L16.5978 19.168C16.3746 19.1743 16.2334 18.9919 16.347 18.8409L17.4386 17.3907C17.542 17.2532 17.7958 17.2659 17.8955 17.4107L18.8538 18.803C18.9446 18.935 18.8297 19.1049 18.6446 19.1102ZM23.6267 15.3997L15.0634 14.5176C14.9424 14.5051 14.8372 14.4274 14.7879 14.3141L12.0326 7.98584L21.4418 9.74768C21.5495 9.76783 21.6409 9.83987 21.6874 9.94098L23.9676 14.9098C24.079 15.1526 23.8883 15.4266 23.6267 15.3997Z" fill="#90A4AB"/>
<path d="M7.31603 3.06681H5.37235V5.09734H4.16699V0H7.51177V0.948749H5.37235V2.12156H7.31603V3.06681Z" fill="#454D52"/>
<path d="M9.87098 3.29787H9.2185V5.09734H8.01315V0H9.98087C10.5738 0 11.0374 0.134202 11.3717 0.402606C11.7059 0.671009 11.873 1.05028 11.873 1.5404C11.873 1.89516 11.8021 2.18924 11.6601 2.42264C11.5205 2.65603 11.3007 2.84508 11.0008 2.98978L12.0447 5.04482V5.09734H10.7535L9.87098 3.29787ZM9.2185 2.34912H9.98087C10.2098 2.34912 10.3815 2.28843 10.496 2.16707C10.6127 2.04337 10.6711 1.87182 10.6711 1.65243C10.6711 1.43304 10.6127 1.2615 10.496 1.1378C10.3792 1.01177 10.2075 0.948749 9.98087 0.948749H9.2185V2.34912Z" fill="#454D52"/>
<path d="M15.702 2.93727H13.8064V4.15209H16.0454V5.09734H12.6011V0H16.0523V0.948749H13.8064V2.02353H15.702V2.93727Z" fill="#454D52"/>
<path d="M19.6375 2.93727H17.7419V4.15209H19.9809V5.09734H16.5365V0H19.9877V0.948749H17.7419V2.02353H19.6375V2.93727Z" fill="#454D52"/>
</g>
<defs>
<clipPath id="clip0">
<rect width="24" height="24.4672" fill="white"/>
</clipPath>
</defs>
</svg>
