<svg width="24" height="22" viewBox="0 0 24 22" fill="none" xmlns="http://www.w3.org/2000/svg">
<path d="M23.0843 3.43896L8.38544 0.328273C7.76355 0.196704 7.14715 0.597922 7.01558 1.21981L6.73633 3.01441L23.6963 6.60341L23.9756 4.80881C24.1071 4.18716 23.7062 3.57057 23.0843 3.43896Z" fill="#90A4AB"/>
<path d="M16.9024 6.98399C16.7307 6.36571 16.0846 6.00026 15.4665 6.17167L12.6762 6.9463L6.09801 5.55414L5.37455 8.9724L0.854368 10.227C0.236324 10.3984 -0.129129 11.0446 0.0422839 11.6626L2.58967 20.8422C2.76136 21.4603 3.40752 21.826 4.02557 21.6543L18.6377 17.5993C19.2558 17.4276 19.6212 16.7817 19.4498 16.1634L19.0126 14.5875L20.6514 14.934C21.2732 15.0658 21.8896 14.6646 22.0212 14.0427L23.058 9.14318L17.155 7.89404L16.9024 6.98399ZM18.5899 11.6494L18.9513 9.9415C19.0056 9.68577 19.2592 9.52083 19.5148 9.57483L21.2228 9.93644C21.4787 9.99072 21.6437 10.244 21.5897 10.5L21.2283 12.2079C21.174 12.4636 20.9205 12.6288 20.6648 12.5746L18.9568 12.2132C18.7006 12.1587 18.5357 11.9052 18.5899 11.6494ZM1.10864 11.143L5.1524 10.0212L14.6936 7.37348L15.7203 7.08823C15.7391 7.08317 15.7578 7.08078 15.776 7.08078C15.8584 7.08078 15.9569 7.13482 15.9856 7.23831L16.1062 7.67243L16.4839 9.03338L1.4568 13.2034L0.958565 11.4086C0.927349 11.296 0.996055 11.1743 1.10864 11.143ZM18.5335 16.4174C18.5527 16.487 18.5326 16.5446 18.5121 16.5807C18.492 16.6167 18.4531 16.6638 18.3834 16.683L3.77152 20.738C3.75305 20.7431 3.73407 20.7457 3.7158 20.7457C3.63344 20.7457 3.53497 20.6914 3.50619 20.5879L2.02038 15.2336L17.0475 11.0633L17.964 14.3656L18.5335 16.4174Z" fill="#90A4AB"/>
<path d="M6.13228 16.7838C6.06216 16.5317 5.79898 16.3828 5.54686 16.4527L3.84038 16.9264C3.5885 16.9963 3.4394 17.2597 3.50952 17.5118L3.98301 19.218C4.05313 19.4702 4.31631 19.619 4.56843 19.5489L6.27491 19.0754C6.52703 19.0055 6.67589 18.7421 6.60601 18.49L6.13228 16.7838Z" fill="#90A4AB"/>
</svg>
