<svg width="63" height="17" viewBox="0 0 63 17" fill="none" xmlns="http://www.w3.org/2000/svg">
<path d="M48.3975 4.67883H45.0186C44.8198 4.67883 44.6211 4.87165 44.5217 5.06446L43.1304 13.5484C43.1304 13.7412 43.2297 13.8376 43.4285 13.8376H45.2173C45.4161 13.8376 45.5155 13.7412 45.5155 13.5484L45.913 11.1382C45.913 10.9453 46.1117 10.7525 46.4099 10.7525H47.503C49.7888 10.7525 51.0807 9.69204 51.3788 7.57107C51.5776 6.7034 51.3788 5.93214 50.9813 5.4501C50.385 4.96806 49.4906 4.67883 48.3975 4.67883ZM48.795 7.8603C48.5962 9.01719 47.7018 9.01719 46.8074 9.01719H46.2111L46.6086 6.79981C46.6086 6.7034 46.708 6.60699 46.9068 6.60699H47.1055C47.7018 6.60699 48.2981 6.60699 48.5962 6.99262C48.795 7.08903 48.795 7.37826 48.795 7.8603Z" fill="#139AD6"/>
<path d="M24.0496 4.67883H20.6707C20.4719 4.67883 20.2732 4.87165 20.1738 5.06446L18.7825 13.5484C18.7825 13.7412 18.8819 13.8376 19.0806 13.8376H20.6707C20.8694 13.8376 21.0682 13.6448 21.1676 13.452L21.5651 11.1382C21.5651 10.9453 21.7638 10.7525 22.062 10.7525H23.1551C25.4409 10.7525 26.7328 9.69204 27.0309 7.57107C27.2297 6.7034 27.0309 5.93214 26.6334 5.4501C26.0371 4.96806 25.2421 4.67883 24.0496 4.67883ZM24.4471 7.8603C24.2483 9.01719 23.3539 9.01719 22.4595 9.01719H21.9626L22.3601 6.79981C22.3601 6.7034 22.4595 6.60699 22.6582 6.60699H22.857C23.4533 6.60699 24.0496 6.60699 24.3477 6.99262C24.4471 7.08903 24.5464 7.37826 24.4471 7.8603Z" fill="#263B80"/>
<path d="M34.2857 7.76392H32.6957C32.5963 7.76392 32.3975 7.86033 32.3975 7.95674L32.2981 8.43878L32.1988 8.24596C31.8013 7.76392 31.1056 7.57111 30.3106 7.57111C28.5217 7.57111 26.9317 8.92082 26.6335 10.7526C26.4348 11.7166 26.7329 12.5843 27.2298 13.1628C27.7267 13.7412 28.4224 13.934 29.3168 13.934C30.8075 13.934 31.6025 13.0664 31.6025 13.0664L31.5031 13.5484C31.5031 13.7412 31.6025 13.8376 31.8013 13.8376H33.2919C33.4907 13.8376 33.6895 13.6448 33.7888 13.452L34.6832 8.05315C34.5839 7.95674 34.3851 7.76392 34.2857 7.76392ZM32 10.849C31.8013 11.7166 31.1056 12.3915 30.1118 12.3915C29.6149 12.3915 29.2174 12.1987 29.0186 12.0059C28.8199 11.7166 28.7205 11.331 28.7205 10.849C28.8199 9.9813 29.6149 9.30645 30.5093 9.30645C31.0062 9.30645 31.3044 9.49926 31.6025 9.69208C31.9006 9.9813 32 10.4633 32 10.849Z" fill="#263B80"/>
<path d="M58.5342 7.76392H56.9442C56.8448 7.76392 56.646 7.86033 56.646 7.95674L56.5467 8.43878L56.4473 8.24596C56.0498 7.76392 55.3541 7.57111 54.5591 7.57111C52.7703 7.57111 51.1802 8.92082 50.8821 10.7526C50.6833 11.7166 50.9815 12.5843 51.4784 13.1628C51.9752 13.7412 52.6709 13.934 53.5653 13.934C55.056 13.934 55.851 13.0664 55.851 13.0664L55.7516 13.5484C55.7516 13.7412 55.851 13.8376 56.0498 13.8376H57.5405C57.7392 13.8376 57.938 13.6448 58.0373 13.452L58.9318 8.05315C58.8324 7.95674 58.733 7.76392 58.5342 7.76392ZM56.2485 10.849C56.0498 11.7166 55.3541 12.3915 54.3603 12.3915C53.8634 12.3915 53.4659 12.1987 53.2672 12.0059C53.0684 11.7166 52.969 11.331 52.969 10.849C53.0684 9.9813 53.8634 9.30645 54.7578 9.30645C55.2547 9.30645 55.5529 9.49926 55.851 9.69208C56.2485 9.9813 56.3479 10.4633 56.2485 10.849Z" fill="#139AD6"/>
<path d="M42.9317 7.76385H41.2423C41.0435 7.76385 40.9441 7.86026 40.8448 7.95667L38.6584 11.2345L37.6646 8.14949C37.5653 7.95667 37.4659 7.86026 37.1677 7.86026H35.5777C35.3789 7.86026 35.2795 8.05308 35.2795 8.24589L37.0684 13.3555L35.3789 15.6693C35.2795 15.8621 35.3789 16.1513 35.5777 16.1513H37.1677C37.3665 16.1513 37.4659 16.0549 37.5653 15.9585L43.0311 8.3423C43.3292 8.05308 43.1305 7.76385 42.9317 7.76385Z" fill="#263B80"/>
<path d="M60.4223 4.968L59.031 13.6447C59.031 13.8375 59.1304 13.9339 59.3291 13.9339H60.7204C60.9192 13.9339 61.118 13.7411 61.2173 13.5483L62.6086 5.06441C62.6086 4.87159 62.5093 4.77519 62.3105 4.77519H60.7204C60.6211 4.67878 60.5217 4.77519 60.4223 4.968Z" fill="#139AD6"/>
<path d="M11.4286 1.78659C10.7329 1.01533 9.44099 0.6297 7.65217 0.6297H2.68323C2.38509 0.6297 2.08696 0.918922 1.98758 1.20815L0 13.8376C0 14.1268 0.198758 14.3196 0.397516 14.3196H3.47826L4.27329 9.59564V9.78845C4.37267 9.49923 4.67081 9.21 4.96894 9.21H6.45963C9.34162 9.21 11.528 8.05311 12.2236 4.87165C12.2236 4.77524 12.2236 4.67883 12.2236 4.58242C12.1242 4.58242 12.1242 4.58242 12.2236 4.58242C12.323 3.32912 12.1242 2.55786 11.4286 1.78659Z" fill="#263B80"/>
<path d="M12.124 4.5824C12.124 4.67881 12.124 4.77521 12.124 4.87162C11.4284 8.14949 9.24204 9.20998 6.36006 9.20998H4.86937C4.57124 9.20998 4.2731 9.4992 4.17372 9.78843L3.17993 15.6693C3.17993 15.8621 3.27931 16.0549 3.57745 16.0549H6.1613C6.45943 16.0549 6.75757 15.8621 6.75757 15.5729V15.4765L7.25447 12.4878V12.295C7.25447 12.0058 7.5526 11.813 7.85074 11.813H8.24826C10.7327 11.813 12.7203 10.8489 13.2172 7.95667C13.416 6.79978 13.3166 5.73929 12.7203 5.06444C12.6209 4.87162 12.4222 4.67881 12.124 4.5824Z" fill="#139AD6"/>
<path d="M11.4287 4.29319C11.3293 4.29319 11.23 4.19678 11.1306 4.19678C11.0312 4.19678 10.9318 4.19678 10.8324 4.10037C10.4349 4.00397 10.0374 4.00397 9.54052 4.00397H5.66474C5.56536 4.00397 5.46598 4.00397 5.36661 4.10037C5.16785 4.19678 5.06847 4.3896 5.06847 4.58241L4.27344 9.59563V9.78844C4.37282 9.49922 4.67095 9.20999 4.96909 9.20999H6.45977C9.34176 9.20999 11.5281 8.0531 12.2237 4.87164C12.2237 4.77523 12.2237 4.67882 12.3231 4.58241C12.1244 4.48601 12.025 4.3896 11.8262 4.3896C11.5281 4.29319 11.5281 4.29319 11.4287 4.29319Z" fill="#232C65"/>
</svg>
