<svg width="58" height="20" viewBox="0 0 58 20" fill="none" xmlns="http://www.w3.org/2000/svg">
<rect width="58" height="20" rx="2" fill="#BD181F"/>
<g clip-path="url(#clip0)">
<path d="M16.6124 7.33678C16.2847 4.96528 13.9214 3.75778 11.3999 4.04051C9.40641 4.26401 7.41891 5.87578 7.33641 8.18052C7.28615 9.58751 7.68516 10.6428 9.02391 10.9398C9.60366 9.91379 8.83717 9.68952 8.71717 8.94627C8.22591 5.90876 12.2211 3.83426 14.3137 5.95677C15.7627 7.42678 14.8079 11.9463 12.4739 11.476C10.2382 11.0275 13.5689 7.42979 11.7847 6.72403C10.3342 6.14953 9.56392 8.47904 10.2517 9.63705C9.84816 11.6283 8.97967 13.5033 9.33141 16C10.4714 15.172 10.8562 13.5888 11.1712 11.9366C11.7442 12.2853 12.0509 12.6461 12.7814 12.7023C15.4754 12.9115 16.9821 10.0128 16.6124 7.33678Z" fill="white"/>
</g>
<path d="M29.152 8C29.116 6.092 27.664 5.276 25.864 5.276C23.872 5.276 22.576 6.284 22.576 7.832C22.576 9.572 23.908 9.92 25.3 10.316C27.064 10.82 27.64 10.94 27.64 11.612C27.64 12.32 27.04 12.752 26.056 12.752C24.916 12.752 24.16 12.296 24.124 11.144H22.264C22.288 13.076 23.656 14.192 25.972 14.192C27.712 14.192 29.488 13.448 29.488 11.432C29.488 10.004 28.516 9.416 26.992 8.984C25.288 8.504 24.376 8.444 24.376 7.7C24.376 7.088 24.892 6.728 25.756 6.728C26.752 6.728 27.304 7.172 27.376 8H29.152ZM36.201 14C35.973 13.472 35.985 12.884 35.985 12.32V9.644C35.985 7.916 34.533 7.628 33.285 7.628C31.497 7.628 30.513 8.336 30.417 9.716H32.013C32.133 9.008 32.457 8.768 33.237 8.768C33.993 8.768 34.353 9.032 34.353 9.596C34.353 10.1 33.945 10.196 32.841 10.34C31.617 10.496 30.141 10.688 30.141 12.308C30.141 13.472 30.981 14.18 32.349 14.18C33.093 14.18 33.825 13.928 34.353 13.4C34.377 13.676 34.389 13.772 34.473 14H36.201ZM34.341 10.988V11.684C34.341 12.572 33.717 13.064 32.829 13.064C32.241 13.064 31.893 12.752 31.893 12.236C31.893 11.48 32.553 11.408 33.141 11.312C33.573 11.24 33.945 11.216 34.341 10.988ZM41.1836 7.808L39.8636 12.032L38.5436 7.808H36.7436L38.8676 14H40.7756L42.8756 7.808H41.1836ZM49.386 12.08H47.754C47.502 12.704 47.118 12.98 46.494 12.98C45.582 12.98 45.066 12.404 45.042 11.336H49.482V11.168C49.482 8.996 48.294 7.628 46.422 7.628C44.622 7.628 43.314 9.02 43.314 10.94C43.314 12.884 44.574 14.18 46.482 14.18C47.886 14.18 49.002 13.424 49.386 12.08ZM47.754 10.256H45.042C45.138 9.392 45.666 8.864 46.422 8.864C47.274 8.864 47.682 9.5 47.754 10.256Z" fill="white"/>
<defs>
<clipPath id="clip0">
<rect width="12" height="12" fill="white" transform="translate(6 4)"/>
</clipPath>
</defs>
</svg>
