<svg width="24" height="24" viewBox="0 0 24 24" fill="none" xmlns="http://www.w3.org/2000/svg">
<path d="M21.709 8.8451L21.7084 4.94564L17.9983 3.74228L15.709 0.584412L12 1.79441L8.29089 0.584493L6.00166 3.74228L2.29158 4.94564L2.29102 8.84519L0 12L2.2911 15.1549L2.29158 19.0543L6.00166 20.2577L8.29098 23.4155L12 22.2055L15.7091 23.4155L17.9983 20.2577L21.7084 19.0543L21.709 15.1548L24 12L21.709 8.8451ZM7.81893 10.8887C7.41886 10.4862 7.19587 9.97956 7.19587 9.36873V8.82195C7.19587 8.20642 7.41764 7.69624 7.81536 7.29139C8.21316 6.88663 8.79031 6.68429 9.52429 6.68429C10.2676 6.68429 10.8275 6.88663 11.2251 7.29139C11.6229 7.69624 11.8111 8.2065 11.8111 8.82195V9.36873C11.8111 9.98434 11.6286 10.4921 11.2308 10.892C10.8331 11.2922 10.264 11.4921 9.5302 11.4921C8.79161 11.4922 8.21907 11.291 7.81893 10.8887ZM9.92622 16.3996L8.81128 15.8385L13.8607 7.75664L14.9758 8.31775L9.92622 16.3996ZM16.7502 15.1853C16.7502 15.8055 16.5565 16.3157 16.1612 16.7158C15.7658 17.1158 15.2033 17.3157 14.4694 17.3157C13.7309 17.3157 13.1531 17.1146 12.7482 16.7121C12.3436 16.3097 12.135 15.8007 12.135 15.1853V14.6384C12.135 14.0277 12.3433 13.5198 12.7458 13.115C13.1481 12.7101 13.7199 12.5078 14.4537 12.5078C15.197 12.5078 15.764 12.7092 16.1594 13.1114C16.5547 13.5139 16.7502 14.0229 16.7502 14.6384V15.1853Z" fill="#90A4AB"/>
<path d="M10.0925 9.95629C10.2227 9.79864 10.2728 9.60221 10.2728 9.36692V8.82353C10.2728 8.58848 10.2214 8.38978 10.0888 8.22744C9.95611 8.0651 9.77434 7.98389 9.52819 7.98389C9.28683 7.98389 9.08254 8.0651 8.95008 8.22744C8.81753 8.38978 8.73438 8.58848 8.73438 8.82353V9.36692C8.73438 9.60221 8.82134 9.79864 8.9538 9.95629C9.08635 10.1138 9.281 10.1926 9.53208 10.1926C9.77345 10.1926 9.96219 10.1138 10.0925 9.95629Z" fill="#90A4AB"/>
<path d="M14.4573 13.8074C14.2111 13.8074 14.0132 13.8887 13.8808 14.0509C13.7479 14.2133 13.6733 14.4098 13.6733 14.6402V15.1834C13.6733 15.4094 13.7575 15.6045 13.9091 15.7693C14.0606 15.9339 14.2494 16.016 14.4672 16.016C14.7608 16.016 14.9555 15.9433 15.0598 15.7973C15.1637 15.6515 15.2117 15.4469 15.2117 15.1834V14.6402C15.2117 14.4097 15.1506 14.2133 15.0156 14.0509C14.8807 13.8887 14.6986 13.8074 14.4573 13.8074Z" fill="#90A4AB"/>
</svg>
