<svg width="14" height="14" viewBox="0 0 14 14" fill="none" xmlns="http://www.w3.org/2000/svg">
<path fill-rule="evenodd" clip-rule="evenodd" d="M9.28684 10.3475C8.34049 11.0705 7.15791 11.5 5.875 11.5C2.7684 11.5 0.25 8.98161 0.25 5.875C0.25 2.76839 2.7684 0.25 5.875 0.25C8.9816 0.25 11.5 2.76839 11.5 5.875C11.5 7.15791 11.0705 8.34049 10.3475 9.28685L13.3107 12.25L12.25 13.3107L9.28684 10.3475ZM10 5.875C10 8.15318 8.15318 10 5.875 10C3.59682 10 1.75 8.15318 1.75 5.875C1.75 3.59682 3.59682 1.75 5.875 1.75C8.15318 1.75 10 3.59682 10 5.875Z" fill="#7A7F85"/>
</svg>
