<svg width="24" height="24" viewBox="0 0 24 24" fill="none" xmlns="http://www.w3.org/2000/svg">
<path d="M5.44608 16.3598C4.14123 16.3598 3.08447 17.4175 3.08447 18.7224C3.08447 20.0272 4.14123 21.084 5.44608 21.084C6.7514 21.084 7.80815 20.0272 7.80815 18.7224C7.80815 17.4175 6.7514 16.3598 5.44608 16.3598ZM5.44608 19.5073C5.01334 19.5073 4.66156 19.156 4.66156 18.7233C4.66156 18.2887 5.01334 17.9374 5.44608 17.9374C5.88024 17.9374 6.23201 18.2887 6.23201 18.7233C6.23201 19.156 5.88024 19.5073 5.44608 19.5073Z" fill="#90A4AB"/>
<path d="M18.7122 16.3598C17.4078 16.3598 16.3511 17.4175 16.3511 18.7224C16.3511 20.0272 17.4078 21.084 18.7122 21.084C20.018 21.084 21.0743 20.0272 21.0743 18.7224C21.0743 17.4175 20.018 16.3598 18.7122 16.3598ZM18.7122 19.5073C18.2795 19.5073 17.9277 19.156 17.9277 18.7233C17.9277 18.2887 18.2795 17.9374 18.7122 17.9374C19.1459 17.9374 19.4977 18.2887 19.4977 18.7233C19.4986 19.156 19.1459 19.5073 18.7122 19.5073Z" fill="#90A4AB"/>
<path d="M23.528 16.071H23.3651V10.2054C23.3651 9.93785 23.2349 9.54867 23.0734 9.33609L20.3904 5.80836C20.2275 5.59625 19.8805 5.42344 19.6115 5.42344H15.2505V3.40036C15.2505 3.13239 15.0341 2.91602 14.7666 2.91602H2.66367C1.59318 2.91602 0.726283 3.78292 0.726283 4.85293V16.071H0.473457C0.212109 16.071 0 16.2826 0 16.5445V18.2376C0 18.5041 0.216843 18.7214 0.483873 18.7214H2.13718C2.13718 16.8967 3.62147 15.4134 5.4457 15.4134C7.2704 15.4134 8.75469 16.8977 8.75469 18.7214H15.4039C15.4039 16.8967 16.8882 15.4134 18.7124 15.4134C20.5367 15.4134 22.0205 16.8977 22.0205 18.7214H23.5152C23.7832 18.7214 23.9995 18.5041 23.9995 18.2376V16.5445C24.0014 16.2831 23.7898 16.071 23.528 16.071ZM16.4806 10.0851V7.25525H18.4975C18.7522 7.25525 19.0817 7.42096 19.2356 7.62502L21.0385 10.0846L16.4806 10.0851Z" fill="#90A4AB"/>
</svg>
