<svg width="64" height="20" viewBox="0 0 64 20" fill="none" xmlns="http://www.w3.org/2000/svg">
<rect width="64" height="20" rx="2" fill="#3994DF"/>
<g clip-path="url(#clip0)">
<path d="M18 6.27956C17.5583 6.47526 17.0844 6.60799 16.5865 6.66724C17.0949 6.36279 17.4841 5.87989 17.6685 5.30624C17.1916 5.58818 16.6652 5.79291 16.1043 5.90389C15.6551 5.42473 15.0163 5.12628 14.3076 5.12628C12.9481 5.12628 11.8458 6.22858 11.8458 7.58732C11.8458 7.78003 11.8676 7.96824 11.9096 8.14822C9.86399 8.04548 8.05009 7.06542 6.83608 5.57618C6.62386 5.93913 6.50314 6.36203 6.50314 6.81346C6.50314 7.66756 6.93806 8.42116 7.59794 8.86207C7.19451 8.84858 6.81508 8.7376 6.4829 8.55313V8.58387C6.4829 9.77615 7.33174 10.7712 8.45727 10.9977C8.25105 11.0532 8.0336 11.0839 7.80864 11.0839C7.64968 11.0839 7.49596 11.0682 7.34523 11.0382C7.65866 12.0167 8.5675 12.7283 9.6443 12.7479C8.80221 13.4077 7.74041 13.7999 6.58714 13.7999C6.38843 13.7999 6.19271 13.7879 6 13.7662C7.08955 14.4658 8.38305 14.8737 9.77329 14.8737C14.3017 14.8737 16.777 11.1229 16.777 7.87003L16.7687 7.55134C17.2523 7.20638 17.6708 6.77297 18 6.27956Z" fill="white"/>
</g>
<path d="M29.176 5.456H22.156V7.052H24.724V14H26.608V7.052H29.176V5.456ZM28.06 7.808L30.04 14H31.804L32.872 9.836L33.976 14H35.728L37.684 7.808H35.944L34.792 11.996L33.712 7.808H32.068L31.024 12.02L29.872 7.808H28.06ZM44.2414 12.08H42.6094C42.3574 12.704 41.9734 12.98 41.3494 12.98C40.4374 12.98 39.9214 12.404 39.8974 11.336H44.3374V11.168C44.3374 8.996 43.1494 7.628 41.2774 7.628C39.4774 7.628 38.1694 9.02 38.1694 10.94C38.1694 12.884 39.4294 14.18 41.3374 14.18C42.7414 14.18 43.8574 13.424 44.2414 12.08ZM42.6094 10.256H39.8974C39.9934 9.392 40.5214 8.864 41.2774 8.864C42.1294 8.864 42.5374 9.5 42.6094 10.256ZM51.1321 12.08H49.5001C49.2481 12.704 48.8641 12.98 48.2401 12.98C47.3281 12.98 46.8121 12.404 46.7881 11.336H51.2281V11.168C51.2281 8.996 50.0401 7.628 48.1681 7.628C46.3681 7.628 45.0601 9.02 45.0601 10.94C45.0601 12.884 46.3201 14.18 48.2281 14.18C49.6321 14.18 50.7481 13.424 51.1321 12.08ZM49.5001 10.256H46.7881C46.8841 9.392 47.4121 8.864 48.1681 8.864C49.0201 8.864 49.4281 9.5 49.5001 10.256ZM55.6107 7.808H54.3507V5.936H52.6587V7.808H51.6267V8.96H52.6587V12.176C52.6587 13.688 53.1147 14.072 54.5787 14.072C54.9627 14.072 55.1427 14.06 55.6107 14.024V12.728C55.4067 12.752 55.2747 12.752 55.0947 12.752C54.3627 12.752 54.3507 12.476 54.3507 11.876V8.96H55.6107V7.808Z" fill="white"/>
<defs>
<clipPath id="clip0">
<rect width="12" height="12" fill="white" transform="translate(6 4)"/>
</clipPath>
</defs>
</svg>
