<svg width="14" height="14" viewBox="0 0 14 14" fill="none" xmlns="http://www.w3.org/2000/svg">
<path fill-rule="evenodd" clip-rule="evenodd" d="M10.75 4C10.75 6.07106 9.07107 7.75 7 7.75C4.92893 7.75 3.25 6.07106 3.25 4C3.25 1.92894 4.92893 0.25 7 0.25C9.07107 0.25 10.75 1.92894 10.75 4ZM9.25 4C9.25 5.24265 8.24265 6.25 7 6.25C5.75735 6.25 4.75 5.24265 4.75 4C4.75 2.75735 5.75735 1.75 7 1.75C8.24265 1.75 9.25 2.75735 9.25 4Z" fill="#65767C"/>
<path d="M1.75 12.25C1.75 11.9407 2.06448 11.3829 3.0813 10.8524C4.03767 10.3535 5.41562 10 7 10C8.58438 10 9.96233 10.3535 10.9187 10.8524C11.9355 11.3829 12.25 11.9407 12.25 12.25V13.75H13.75V12.25C13.75 11.0593 12.752 10.1171 11.6126 9.52255C10.4127 8.89654 8.79062 8.5 7 8.5C5.20938 8.5 3.58734 8.89654 2.38745 9.52255C1.24802 10.1171 0.25 11.0593 0.25 12.25V13.75H1.75V12.25Z" fill="#65767C"/>
</svg>
